<?xml version="1.0" encoding="utf-8"?>
<!-- Generator: Adobe Illustrator 27.8.0, SVG Export Plug-In . SVG Version: 6.00 Build 0)  -->
<svg version="1.1" id="Ebene_1" xmlns="http://www.w3.org/2000/svg" xmlns:xlink="http://www.w3.org/1999/xlink" x="0px" y="0px"
	 viewBox="0 0 32 32" style="enable-background:new 0 0 32 32;" xml:space="preserve">
<style type="text/css">
	.st0{fill:#FF4554;}
</style>
<polygon class="st0" points="21.9,17.9 17.5,23.2 21.1,27.5 23.6,27.5 26.8,27.5 30,27.5 "/>
<polygon class="st0" points="29.7,5.4 26.8,5.4 26.8,5.4 26.8,5.4 26.8,5.4 23.6,5.4 23.6,5.4 21.1,5.4 17.5,9.8 21.9,15 21.9,15 
	30,5.4 "/>
<polygon class="st0" points="15.9,10.8 11.4,5.4 2.5,5.4 2.5,5.4 7.1,10.8 11.8,16.5 7.1,22.1 2.5,27.5 11.1,27.5 11.4,27.5 
	15.9,22.1 20.7,16.5 "/>
</svg>
